<svg fill="none" xmlns="http://www.w3.org/2000/svg" viewBox="0 0 32 32"><path d="M27 19l-1.811-7.243a1 1 0 00-.97-.757H7.781a1 1 0 00-.97.757L5 19M29 28H3v-6.586a1 1 0 01.293-.707L5 19h22l1.707 1.707a1 1 0 01.293.707V28z" stroke="#FE6748" stroke-width="2" stroke-miterlimit="10" stroke-linecap="round" stroke-linejoin="round"/><path d="M7.5 25a1.5 1.5 0 100-3 1.5 1.5 0 000 3zM24.5 25a1.5 1.5 0 100-3 1.5 1.5 0 000 3z" fill="#FE6748"/><path d="M1 9l15-7 15 7M7 28H3v3h4v-3zM29 28h-4v3h4v-3z" stroke="#FE6748" stroke-width="2" stroke-miterlimit="10" stroke-linecap="round" stroke-linejoin="round"/><path d="M7 28H3v3h4v-3zM29 28h-4v3h4v-3z" fill="#FE6748"/></svg>
